<?xml version="1.0" encoding="UTF-8" standalone="no"?>
<!-- Created with Inkscape (http://www.inkscape.org/) -->

<svg
   width="512"
   height="512"
   viewBox="0 0 135.46666 135.46667"
   version="1.1"
   id="svg5"
   inkscape:version="1.2.2 (b0a8486541, 2022-12-01)"
   sodipodi:docname="logo-mpus-4-dark.svg"
   inkscape:export-filename="logo-mpus-4.png"
   inkscape:export-xdpi="96"
   inkscape:export-ydpi="96"
   xmlns:inkscape="http://www.inkscape.org/namespaces/inkscape"
   xmlns:sodipodi="http://sodipodi.sourceforge.net/DTD/sodipodi-0.dtd"
   xmlns="http://www.w3.org/2000/svg"
   xmlns:svg="http://www.w3.org/2000/svg">
  <sodipodi:namedview
     id="namedview7"
     pagecolor="#ffffff"
     bordercolor="#000000"
     borderopacity="0"
     inkscape:showpageshadow="2"
     inkscape:pageopacity="0"
     inkscape:pagecheckerboard="0"
     inkscape:deskcolor="#d1d1d1"
     inkscape:document-units="mm"
     showgrid="false"
     inkscape:zoom="0.69931958"
     inkscape:cx="265.25784"
     inkscape:cy="269.54772"
     inkscape:window-width="1861"
     inkscape:window-height="1011"
     inkscape:window-x="0"
     inkscape:window-y="0"
     inkscape:window-maximized="1"
     inkscape:current-layer="layer1" />
  <defs
     id="defs2">
    <linearGradient
       id="linearGradient9948"
       inkscape:swatch="gradient">
      <stop
         style="stop-color:#000000;stop-opacity:1;"
         offset="0"
         id="stop9944" />
      <stop
         style="stop-color:#000000;stop-opacity:0;"
         offset="1"
         id="stop9946" />
    </linearGradient>
    <linearGradient
       id="linearGradient7941"
       inkscape:swatch="solid">
      <stop
         style="stop-color:#000000;stop-opacity:1;"
         offset="0"
         id="stop7939" />
    </linearGradient>
    <linearGradient
       id="linearGradient7935"
       inkscape:swatch="solid">
      <stop
         style="stop-color:#000000;stop-opacity:1;"
         offset="0"
         id="stop7933" />
    </linearGradient>
    <linearGradient
       id="linearGradient6438"
       inkscape:swatch="solid">
      <stop
         style="stop-color:#000000;stop-opacity:1;"
         offset="0"
         id="stop6436" />
    </linearGradient>
    <linearGradient
       id="linearGradient6432"
       inkscape:swatch="solid">
      <stop
         style="stop-color:#000000;stop-opacity:1;"
         offset="0"
         id="stop6430" />
    </linearGradient>
    <rect
       x="166.69105"
       y="454.63276"
       width="243.78049"
       height="51.852857"
       id="rect3653" />
    <rect
       x="174.3324"
       y="454.98467"
       width="142.56603"
       height="50.886516"
       id="rect3566" />
  </defs>
  <g
     inkscape:label="Layer 1"
     inkscape:groupmode="layer"
     id="layer1">
    <path
       style="fill:#ffffff;fill-opacity:1;stroke:#ffffff;stroke-width:0.264583;stroke-opacity:1"
       id="path3344"
       d="m 46.656474,66.737131 c 0.170381,-3.664257 0.487106,-7.326154 1.136063,-10.939902 0.182993,-1.01901 0.411977,-2.029224 0.617966,-3.043838 1.366393,-5.747149 3.437162,-11.384869 6.649265,-16.373969 0.617569,-0.959218 1.329123,-1.85456 1.993685,-2.781843 1.464453,-1.650219 2.557862,-3.07676 4.364644,-4.371242 1.58147,-1.133057 3.840379,-2.177325 5.682038,-2.773923 2.689891,-0.871381 3.804541,-0.890717 6.59399,-1.26189 4.60651,-0.289682 9.361501,0.03045 13.702544,1.72707 0.641683,0.25079 1.251278,0.576987 1.876917,0.865478 -0.523645,-0.272737 -1.450817,-1.396285 -1.570935,-0.818218 -0.1309,0.629967 1.023274,0.785138 1.484614,1.233646 0.50233,0.488363 0.968288,1.016053 1.398329,1.569133 1.602152,2.060545 2.636482,4.391871 3.695435,6.755103 2.10594,5.77869 3.27809,11.919487 3.568909,18.064475 0.06257,1.322009 0.02477,2.646865 0.03714,3.970297 -0.232973,5.664314 -1.169945,11.34518 -3.559109,16.531876 -1.803852,3.916029 -2.678726,4.791588 -5.167254,8.267768 -3.953772,4.837681 -8.881872,8.685431 -14.800402,10.807651 -4.268994,1.530744 -5.203106,1.388644 -9.75083,1.964341 -7.244511,0.270257 -14.45273,-0.973724 -21.297424,-3.326941 -4.012255,-1.37943 -3.171198,-0.85657 -5.077653,-2.30436 -1.054375,-0.92351 -2.19912,-1.75304 -3.163127,-2.77052 -3.889123,-4.104844 -6.07805,-9.681959 -7.129806,-15.161773 -0.253158,-1.318993 -0.353825,-2.662732 -0.530738,-3.994097 -0.26267,-3.477382 -0.06861,-6.940399 0.735295,-10.336461 0.213465,-0.901777 0.518165,-1.779485 0.777248,-2.669228 0,0 -3.1815,-1.733095 -3.1815,-1.733095 v 0 c -0.249179,0.907672 -0.541745,1.804535 -0.747535,2.723018 -0.773446,3.452034 -0.964371,6.962169 -0.682164,10.487932 0.177355,1.345843 0.279375,2.703774 0.532067,4.037526 1.043655,5.508609 3.191345,11.178495 7.049093,15.352128 0.960528,1.03917 2.106809,1.8898 3.160213,2.83471 2.220967,1.31396 4.364782,2.76806 6.662897,3.94189 1.342292,0.68561 2.792384,1.14159 4.222353,1.618037 6.879138,2.292058 14.110034,3.488452 21.366104,3.207862 4.58819,-0.586417 5.564206,-0.446157 9.866466,-2.002488 5.966545,-2.158381 10.896002,-6.087231 14.868435,-10.976631 2.523252,-3.540363 3.349416,-4.370784 5.226503,-8.329565 2.48961,-5.2506 3.4552,-10.836655 3.70862,-16.599463 -0.009,-1.33156 0.0311,-2.664394 -0.0278,-3.994682 -0.27205,-6.142355 -1.38924,-12.286958 -3.37714,-18.102214 -1.28933,-3.004945 -2.599391,-6.04519 -4.917083,-8.428313 -1.895313,-1.94882 -3.701049,-2.604063 -6.296551,-4.132432 -0.626658,-0.271806 -1.238787,-0.579927 -1.879976,-0.815422 -4.358021,-1.600604 -9.090631,-1.846233 -13.677651,-1.507924 -2.758072,0.390515 -4.003548,0.440955 -6.66488,1.321724 -1.806369,0.597815 -4.225293,1.738646 -5.770118,2.862754 -1.768912,1.287175 -2.93796,2.832614 -4.356931,4.469128 -0.662189,0.94139 -1.368838,1.853028 -1.986566,2.824173 -3.20017,5.031062 -5.341268,10.670278 -6.766756,16.438086 -0.215513,1.015754 -0.453257,2.027044 -0.646538,3.047262 -0.677553,3.576431 -1.000085,7.20263 -1.44177,10.811676 0,0 3.49137,1.81569 3.49137,1.81569 z" />
    <path
       style="fill:#ffffff;fill-opacity:1;stroke:#ffffff;stroke-width:0.264583;stroke-opacity:1"
       id="path3346"
       d="m 55.532956,53.295777 c 1.712939,-1.583778 3.567391,-2.996711 5.639308,-4.081913 0.685411,-0.358997 1.394791,-0.670247 2.092185,-1.005371 4.280432,-1.960917 8.832704,-3.176424 13.397664,-4.259514 0,0 -3.000904,-2.072201 -3.000904,-2.072201 v 0 c -4.57362,1.151753 -9.145315,2.384743 -13.470141,4.299958 -0.716413,0.333806 -1.444731,0.643157 -2.149232,1.001416 -2.125313,1.080781 -4.009387,2.511354 -5.837851,4.026683 0,0 3.328971,2.090942 3.328971,2.090942 z" />
    <path
       style="fill:#ffffff;fill-opacity:1;stroke:#ffffff;stroke-width:0.372387;stroke-opacity:1"
       id="path3348"
       d="m 43.19905,72.231392 c -0.70828,1.726512 -1.45335,3.369914 -2.245449,4.939134 -0.207104,0.254777 -0.484527,1.049244 -0.764162,1.059279 -0.442857,0.01595 -1.602348,-0.803527 -2.003835,-1.064469 -1.911591,-1.236765 -3.752124,-2.852264 -5.630614,-4.266578 -1.507615,-0.880219 -4.997629,-5.048232 0.868976,1.642728 0,0 -3.648288,-2.81222 -3.648288,-2.81222 v 0 c 1.990051,2.280179 3.683911,4.535968 5.80715,5.929955 1.877957,1.443132 3.732916,3.01069 5.651387,4.233944 0.713339,0.410194 1.495121,1.029144 2.251894,0.650432 0.316828,-0.158551 0.557939,-0.913639 0.806209,-1.269372 0.783265,-1.609053 1.500931,-3.326423 2.266702,-4.96903 0,0 -3.35997,-4.073803 -3.35997,-4.073803 z" />
    <path
       style="fill:#ffffff;fill-opacity:1;stroke:#ffffff;stroke-width:0.276593;stroke-opacity:1"
       id="path3350"
       d="m 46.743189,77.419711 c 0.898142,0.817552 1.75228,1.80455 2.618545,2.740549 0.927077,0.849992 1.84584,1.794105 2.845335,2.272025 1.564644,0.618105 3.114408,0.09844 4.633138,-0.687678 2.326647,-1.275818 4.293365,-3.983819 6.125834,-6.955104 0.932271,-1.612277 1.781894,-3.397425 2.599898,-5.226308 0,0 -2.48849,-2.912264 -2.48849,-2.912264 v 0 c -0.778151,1.841188 -1.594956,3.630163 -2.511569,5.217671 -1.812476,2.932551 -3.772381,5.534491 -6.083554,6.712697 -1.516329,0.702562 -3.063924,1.144966 -4.600796,0.370446 -0.968373,-0.595689 -1.888304,-1.4514 -2.789602,-2.356656 -0.879166,-0.95496 -1.754875,-1.922446 -2.657416,-2.792666 0,0 2.308677,3.617288 2.308677,3.617288 z" />
    <path
       style="fill:#ffffff;fill-opacity:1;stroke:#ffffff;stroke-width:0.264583;stroke-opacity:1"
       id="path3354"
       d="m 43.086073,51.28847 c -1.598203,-1.879692 -3.247866,-3.715197 -4.859555,-5.583706 -1.098867,-1.245404 -2.173689,-2.511057 -3.191663,-3.823607 -0.428842,-0.534839 -0.222633,-0.276082 -0.618936,-0.776026 0,0 -3.618862,-1.550677 -3.618862,-1.550677 v 0 c 0.398311,0.515268 0.186824,0.255053 0.636822,0.778719 1.018215,1.352483 2.149921,2.613874 3.26942,3.882207 1.591748,1.836827 3.223788,3.642561 4.757969,5.526778 0,0 3.624805,1.546312 3.624805,1.546312 z" />
    <path
       style="fill:#ffffff;fill-opacity:1;stroke:#ffffff;stroke-width:0.264583;stroke-opacity:1"
       id="path3356"
       d="m 83.710233,22.45619 c 8.85164,-2.147779 17.609617,-4.670454 26.362187,-7.187203 7.65489,-2.28905 1.72337,-0.502352 8.45172,-2.55893 0.95914,-0.29317 1.90377,-0.640434 2.87926,-0.873518 0.56736,-0.135566 2.07447,0.245337 1.73494,-0.229004 -2.30529,-3.2206868 -2.66619,-1.8133297 -3.33743,-0.514694 -3.79517,5.062679 -8.51275,9.351176 -13.10718,13.670801 -2.03695,1.908778 -4.10197,3.787135 -6.16698,5.66538 0,0 3.14398,1.940653 3.14398,1.940653 v 0 c 1.99664,-1.928874 3.99585,-3.855133 6.01462,-5.760903 4.62366,-4.38299 9.35955,-8.697748 13.4395,-13.60514 1.31683,-2.283346 1.66948,-1.900999 -3.07532,-3.5584344 -0.52372,-0.182943 -1.09174,0.2081837 -1.62335,0.3667337 -0.93608,0.2791817 -1.84837,0.6326937 -2.77401,0.9447577 -4.625,1.559245 -3.15247,1.065565 -8.27137,2.670431 -8.858101,2.587659 -17.754381,5.162282 -26.841575,6.820436 0,0 3.171008,2.208634 3.171008,2.208634 z" />
    <path
       style="fill:#ffffff;fill-opacity:1;stroke:#ffffff;stroke-width:0.264583;stroke-opacity:1"
       id="path3358"
       d="m 32.000189,27.385809 c -1.620792,-3.734524 -2.77296,-7.637881 -3.89187,-11.544265 -0.433797,-1.580806 -0.937053,-3.144765 -1.298345,-4.745026 -0.06483,-0.28717 -0.275985,-0.593689 -0.167153,-0.867232 0.06832,-0.171731 0.36305,-0.102003 0.547375,-0.08843 0.442333,0.03257 0.874253,0.150192 1.311379,0.225288 3.704876,0.956573 7.284539,2.335554 10.846569,3.719658 1.606727,0.596032 3.185066,1.259598 4.752853,1.947454 2.523829,1.164184 5.126704,2.145943 7.733813,3.105174 1.862212,0.653649 0.974926,0.330571 2.663711,0.964124 0,0 -3.016149,-2.358192 -3.016149,-2.358192 v 0 C 49.822699,17.145775 50.694929,17.456091 48.864844,16.815775 46.221442,15.835768 43.592606,14.809939 41.040965,13.607606 39.51215,12.915177 37.930353,12.348189 36.364455,11.746208 32.777334,10.384986 29.177354,9.0086896 25.446137,8.0920952 24.949105,8.0589552 23.50673,7.6454585 23.151768,8.5407219 c -0.114273,0.288213 0.129258,0.6066297 0.206001,0.9070237 0.413745,1.6195234 0.951783,3.2040144 1.412528,4.8099944 1.130061,3.85127 2.264009,7.701569 3.657739,11.46774 0,0 3.572153,1.660329 3.572153,1.660329 z" />
    <path
       style="fill:#ffffff;fill-opacity:1;stroke:#ffffff;stroke-width:0.264583;stroke-opacity:1"
       id="path3360"
       d="m 82.779762,59.732216 c 4.975788,-0.156162 9.95281,0.103926 14.920793,0.357182 4.905245,0.267475 2.496985,0.121632 7.224955,0.434499 0,0 -2.84475,-2.09427 -2.84475,-2.09427 v 0 c -4.698806,-0.280366 -2.30161,-0.144542 -7.191667,-0.405696 -5.099429,-0.280136 -10.200799,-0.552738 -15.308501,-0.616045 0,0 3.19917,2.32433 3.19917,2.32433 z" />
    <path
       style="fill:#ffffff;fill-opacity:1;stroke:#ffffff;stroke-width:0.264583;stroke-opacity:1"
       id="path3362"
       d="m 81.541107,68.741006 c 3.209205,1.092901 6.246116,2.609781 9.286033,4.094765 2.018594,0.989534 4.022937,2.006741 6.017065,3.04446 0,0 -2.923882,-2.344658 -2.923882,-2.344658 v 0 c -1.975792,-1.007721 -3.958505,-2.001475 -5.948994,-2.979928 -3.130024,-1.530225 -6.260926,-3.07336 -9.546405,-4.248853 0,0 3.116183,2.434214 3.116183,2.434214 z" />
    <path
       style="fill:#ffffff;fill-opacity:1;stroke:#ffffff;stroke-width:0.264583;stroke-opacity:1"
       id="path3364"
       d="m 79.256721,74.673641 c -0.805188,-0.459451 -1.559904,-1.021606 -2.415564,-1.378352 -0.467093,-0.194741 0.835213,0.572918 1.23326,0.885423 0.50364,0.395404 0.997416,0.804529 1.469832,1.236758 2.167914,1.983504 3.983334,4.226049 5.809956,6.517285 1.889371,2.469848 3.569446,5.084438 5.225635,7.712378 0,0 3.326119,1.46343 3.326119,1.46343 v 0 c -1.698125,-2.63465 -3.415533,-5.25766 -5.283909,-7.776612 -1.766639,-2.273387 -3.52144,-4.514657 -5.607841,-6.509472 -0.426191,-0.407482 -1.973268,-1.766258 -2.574343,-2.141149 -1.386993,-0.865063 -2.824625,-1.646158 -4.236939,-2.469237 0,0 3.053794,2.459548 3.053794,2.459548 z" />
    <path
       style="fill:#ffffff;fill-opacity:1;stroke:#ffffff;stroke-width:0.264583;stroke-opacity:1"
       id="path3380"
       d="m 23.495673,51.313958 c 0.889916,0.514561 1.778923,1.030697 2.669749,1.543685 0.401323,0.231105 -0.799499,-0.467665 -1.201244,-0.698037 -1.658411,-0.95099 -3.316821,-1.902003 -4.9792,-2.846036 -2.587028,-1.469128 -5.203653,-2.88267 -7.82598,-4.287372 -0.898787,-0.475207 -1.797574,-0.950412 -2.6963614,-1.42562 0,0 2.7996514,2.249665 2.7996514,2.249665 v 0 c 0.890502,0.469646 1.781003,0.939292 2.671504,1.408938 2.925813,1.57685 2.755664,1.468681 5.610326,3.070982 0.782498,0.439208 1.550346,0.90484 2.341587,1.328099 0.505797,0.270566 -0.983081,-0.591833 -1.484846,-0.869804 -0.383376,-0.212386 0.75303,0.448649 1.129545,0.67297 1.344279,0.77814 2.688557,1.556279 4.032835,2.334419 0,0 -3.067566,-2.481889 -3.067566,-2.481889 z" />
    <path
       style="fill:#ffffff;fill-opacity:1;stroke:#ffffff;stroke-width:0.264583;stroke-opacity:1"
       id="path3382"
       d="m 22.499556,55.267415 c -2.500381,-0.359942 -5.01592,-0.566016 -7.536007,-0.724273 -1.855226,-0.09262 -0.948127,-0.05176 -2.721245,-0.123736 0,0 3.086808,2.260791 3.086808,2.260791 v 0 c 1.75309,0.06298 0.85519,0.02506 2.693624,0.115488 2.559752,0.16582 5.110184,0.410726 7.644023,0.817578 0,0 -3.167203,-2.345848 -3.167203,-2.345848 z" />
    <path
       style="fill:#ffffff;fill-opacity:1;stroke:#ffffff;stroke-width:0.264583;stroke-opacity:1"
       id="path3384"
       d="m 19.091344,63.733914 c -3.708683,1.576282 -7.3836,3.227801 -11.1260723,4.724033 -0.4689999,0.192952 -0.9379998,0.385905 -1.4069997,0.57886 0,0 3.1594356,2.106512 3.1594356,2.106512 v 0 c 0.4547554,-0.200512 0.9095094,-0.401026 1.3642644,-0.601541 3.731689,-1.574702 7.418739,-3.272139 11.236056,-4.631785 0,0 -3.226684,-2.176079 -3.226684,-2.176079 z" />
    <ellipse
       style="fill:#ffffff;fill-opacity:1;stroke:#ffffff;stroke-width:0.264583;stroke-opacity:1"
       id="path3440"
       cx="35.047062"
       cy="54.956562"
       rx="1.8651173"
       ry="5.8495522" />
    <ellipse
       style="fill:#ffffff;fill-opacity:1;stroke:#ffffff;stroke-width:0.312326;stroke-opacity:1"
       id="path3442"
       cx="60.769279"
       cy="57.468266"
       rx="1.695672"
       ry="6.0155921" />
    <ellipse
       style="fill:#ffffff;fill-opacity:1;stroke:#ffffff;stroke-width:0.264583;stroke-opacity:1"
       id="path3460"
       cx="44.351963"
       cy="68.74543"
       rx="7.232872"
       ry="4.1750846" />
    <path
       style="fill:#ffffff;fill-opacity:1;stroke:#ffffff;stroke-width:0.264583;stroke-opacity:1"
       id="path3464"
       d="m 34.806523,90.189483 c 2.208689,1.89542 4.215503,4.01386 6.250577,6.091321 1.627191,1.777368 3.444262,3.362079 5.362954,4.814486 1.526796,1.08322 3.132899,2.08086 4.85603,2.81715 0,0 -3.080893,-2.4495 -3.080893,-2.4495 v 0 c -2.194131,-1.10255 4.374824,2.62713 1.836978,1.06752 -1.962002,-1.43924 -3.838308,-2.999727 -5.484235,-4.799335 -2.001893,-2.046888 -3.978114,-4.128322 -6.097622,-6.053702 0,0 -3.643789,-1.48794 -3.643789,-1.48794 z" />
    <path
       style="fill:#ffffff;fill-opacity:1;stroke:#ffffff;stroke-width:0.264583;stroke-opacity:1"
       id="path3466"
       d="m 58.563013,106.79745 c 3.480477,-0.0414 6.926757,-0.5588 10.360676,-1.07859 2.774286,-0.46804 5.576382,-0.91958 8.28145,-1.71523 1.124945,-0.33089 2.078448,-0.71348 3.169642,-1.12611 2.149557,-0.83715 4.105418,-1.99166 5.843003,-3.499954 1.302417,-1.289344 2.355329,-2.809915 3.327799,-4.356436 0.723755,-1.314347 1.495775,-2.604597 2.063864,-3.996417 0.261337,-0.65901 0.281742,-1.35641 0.07172,-2.02844 -0.150747,-0.35141 -0.07011,-0.17893 -0.241665,-0.51753 0,0 -3.609377,-1.63339 -3.609377,-1.63339 v 0 c 0.162774,0.33145 0.07622,0.17409 0.257408,0.47333 0.241337,0.58682 0.321238,1.17768 0.08671,1.79188 -0.514201,1.38973 -1.256508,2.67008 -1.982525,3.95761 -0.95132,1.51762 -1.976173,3.009811 -3.2708,4.258655 -1.683224,1.483501 -3.602953,2.601685 -5.687732,3.438442 -1.148628,0.4407 -1.920534,0.76142 -3.113379,1.11402 -2.679753,0.79212 -5.451964,1.26472 -8.202996,1.72219 -3.493497,0.5124 -7.011596,0.99776 -10.552602,0.8719 0,0 3.198802,2.32407 3.198802,2.32407 z" />
    <path
       style="fill:#ffffff;fill-opacity:1;stroke:#ffffff;stroke-width:0.264583;stroke-opacity:1"
       id="path3468"
       d="m 29.244428,87.862803 c -4.776301,2.56292 -9.683664,4.87402 -14.544937,7.270787 -4.526653,2.260885 -8.9959089,4.633633 -13.518307,6.90283 0,0 3.1586079,2.07068 3.1586079,2.07068 v 0 c 4.4198796,-2.39152 8.8496101,-4.765984 13.3507621,-7.002352 4.908799,-2.398685 9.835512,-4.759095 14.751359,-7.143115 0,0 -3.197485,-2.09883 -3.197485,-2.09883 z" />
    <path
       style="fill:#ffffff;fill-opacity:1;stroke:#ffffff;stroke-width:0.264583;stroke-opacity:1"
       id="path3470"
       d="m 96.442562,87.306903 c 4.261338,1.10729 8.251228,3.01777 12.241918,4.83603 5.72438,2.687847 11.30667,5.665042 16.8003,8.794187 5.14023,2.94993 0.41099,0.22716 0.41413,0.25798 0.0601,0.59 1.00531,0.62954 1.50281,0.95236 1.16864,0.7583 2.30279,1.55143 3.41121,2.3943 0.23984,0.18738 0.47969,0.37477 0.71953,0.56216 0,0 3.59838,1.43784 3.59838,1.43784 v 0 c -0.24926,-0.19209 -0.49852,-0.38419 -0.74778,-0.57628 -3.66841,-2.82254 -7.72566,-5.0657 -11.75017,-7.333841 -5.47406,-3.081832 -11.03023,-6.020766 -16.71904,-8.689006 -4.11449,-1.88395 -8.231525,-3.84332 -12.615652,-5.02803 0,0 3.144364,2.3923 3.144364,2.3923 z" />
    <text
       xml:space="preserve"
       transform="matrix(0.23489197,-0.12177891,0.12177891,0.23489197,-94.948044,19.514579)"
       id="text3564"
       style="font-size:42.6667px;white-space:pre;shape-inside:url(#rect3566);display:inline;fill:#ffffff;fill-opacity:1;stroke:#ffffff;stroke-opacity:1"
       x="139.64819"
       y="0"><tspan
         x="194.41516"
         y="494.45107"
         id="tspan1208"><tspan
           style="font-weight:bold;font-family:FreeMono;-inkscape-font-specification:'FreeMono Bold';text-align:center;text-anchor:middle"
           id="tspan1206">MPUS</tspan></tspan></text>
    <text
       xml:space="preserve"
       transform="matrix(0.26458333,0,0,0.26458333,0,-5.8208336)"
       id="text3651"
       style="font-size:42.6667px;text-align:center;white-space:pre;shape-inside:url(#rect3653);display:inline;fill:#ffffff;fill-opacity:1;stroke:#ffffff;stroke-opacity:1" />
    <text
       xml:space="preserve"
       style="font-style:normal;font-variant:normal;font-weight:normal;font-stretch:normal;font-size:11.6122px;font-family:FreeMono;-inkscape-font-specification:FreeMono;text-align:center;text-anchor:middle;fill:#ffffff;fill-opacity:1;stroke:#ffffff;stroke-width:0.27216;stroke-opacity:1"
       x="141.64806"
       y="38.927685"
       id="text3659"
       transform="matrix(0.86855357,0.46184051,-0.43633448,0.91932506,0,0)"><tspan
         sodipodi:role="line"
         id="tspan3657"
         style="font-style:normal;font-variant:normal;font-weight:bold;font-stretch:normal;font-family:FreeMono;-inkscape-font-specification:'FreeMono Bold';fill:#ffffff;fill-opacity:1;stroke-width:0.27216;stroke:#ffffff;stroke-opacity:1"
         x="141.64806"
         y="38.927685">CODE</tspan></text>
  </g>
</svg>
